# xmcd
#
# Track frame offsets:
#	150
#	14575
#	30945
#	39850
#	59828
#	69072
#	82318
#	94453
#	103303
#	123748
#	145460
#	151655
#
# Disc length: 2237 seconds
#
# Revision: 0
# Processed by: cddbd v1.5.2PL0 Copyright (c) Steve Scherf et al.
# Submitted via: dBpowerAMP V4.0
#
DISCID=a608bb0c
DTITLE=Flying J Wranglers - A Partner in His Plan
DYEAR=1900
DGENRE=Country
TTITLE0=Yodel Blues
TTITLE1=Voice of a Big Guitar
TTITLE2=Miss Molley
TTITLE3=God Must Be a Cowboy at Heart
TTITLE4=Gold Rush
TTITLE5=Great American Cowboy
TTITLE6=Don't Fence Me In
TTITLE7=Yodel Your Troubles Away
TTITLE8=Biggest, Littlest Cowboy
TTITLE9=Livin' in a Mobile Home
TTITLE10=Blackberry Blossom
TTITLE11=Partner in His Plan
EXTD=Flying J Wranglers - Riodoso, NM\nA Partner in His Plan
EXTT0=
EXTT1=
EXTT2=
EXTT3=
EXTT4=
EXTT5=
EXTT6=
EXTT7=
EXTT8=
EXTT9=
EXTT10=
EXTT11=
PLAYORDER=
